<svg viewBox="0 0 330 200" xmlns="http://www.w3.org/2000/svg"><g><g><g><g><g><line x1="30.766000747680664" y1="176.86299896240234" x2="25.766000747680664" y2="176.86299896240234" style="visibility: inherit;" fill="rgb(0, 0, 0)" stroke="rgb(204, 204, 204)" stroke-width="1px"></line><line x1="30.766000747680664" y1="164.22992760794503" x2="25.766000747680664" y2="164.22992760794503" style="visibility: inherit;" fill="rgb(0, 0, 0)" stroke="rgb(204, 204, 204)" stroke-width="1px"></line><line x1="30.766000747680664" y1="151.59685625348774" x2="25.766000747680664" y2="151.59685625348774" style="visibility: inherit;" fill="rgb(0, 0, 0)" stroke="rgb(204, 204, 204)" stroke-width="1px"></line><line x1="30.766000747680664" y1="138.9637848990304" x2="25.766000747680664" y2="138.9637848990304" style="visibility: inherit;" fill="rgb(0, 0, 0)" stroke="rgb(204, 204, 204)" stroke-width="1px"></line><line x1="30.766000747680664" y1="126.3307135445731" x2="25.766000747680664" y2="126.3307135445731" style="visibility: inherit;" fill="rgb(0, 0, 0)" stroke="rgb(204, 204, 204)" stroke-width="1px"></line><line x1="30.766000747680664" y1="113.69764219011579" x2="25.766000747680664" y2="113.69764219011579" style="visibility: inherit;" fill="rgb(0, 0, 0)" stroke="rgb(204, 204, 204)" stroke-width="1px"></line><line x1="30.766000747680664" y1="101.06457083565847" x2="25.766000747680664" y2="101.06457083565847" style="visibility: inherit;" fill="rgb(0, 0, 0)" stroke="rgb(204, 204, 204)" stroke-width="1px"></line><line x1="30.766000747680664" y1="88.43149948120117" x2="25.766000747680664" y2="88.43149948120117" style="visibility: inherit;" fill="rgb(0, 0, 0)" stroke="rgb(204, 204, 204)" stroke-width="1px"></line><line x1="30.766000747680664" y1="75.79842812674387" x2="25.766000747680664" y2="75.79842812674387" style="visibility: inherit;" fill="rgb(0, 0, 0)" stroke="rgb(204, 204, 204)" stroke-width="1px"></line><line x1="30.766000747680664" y1="63.16535677228654" x2="25.766000747680664" y2="63.16535677228654" style="visibility: inherit;" fill="rgb(0, 0, 0)" stroke="rgb(204, 204, 204)" stroke-width="1px"></line><line x1="30.766000747680664" y1="50.532285417829236" x2="25.766000747680664" y2="50.532285417829236" style="visibility: inherit;" fill="rgb(0, 0, 0)" stroke="rgb(204, 204, 204)" stroke-width="1px"></line><line x1="30.766000747680664" y1="37.899214063371936" x2="25.766000747680664" y2="37.899214063371936" style="visibility: inherit;" fill="rgb(0, 0, 0)" stroke="rgb(204, 204, 204)" stroke-width="1px"></line><line x1="30.766000747680664" y1="25.26614270891463" x2="25.766000747680664" y2="25.26614270891463" style="visibility: inherit;" fill="rgb(0, 0, 0)" stroke="rgb(204, 204, 204)" stroke-width="1px"></line><line x1="30.766000747680664" y1="12.633071354457305" x2="25.766000747680664" y2="12.633071354457305" style="visibility: inherit;" fill="rgb(0, 0, 0)" stroke="rgb(204, 204, 204)" stroke-width="1px"></line><line x1="30.766000747680664" y1="0" x2="25.766000747680664" y2="0" style="visibility: inherit;" fill="rgb(0, 0, 0)" stroke="rgb(204, 204, 204)" stroke-width="1px"></line></g><g transform="translate(20.766000747680664, 0)"><text style="text-anchor: end; visibility: hidden; font-family: Roboto, sans-serif; font-size: 12px; font-weight: 200;" x="0" y="176.86299896240234" dx="0em" dy="0.3em" fill="rgb(255, 255, 255)" stroke="none" stroke-width="1px">15</text><text style="text-anchor: end; visibility: inherit; font-family: Roboto, sans-serif; font-size: 12px; font-weight: 200;" x="0" y="164.22992760794503" dx="0em" dy="0.3em" fill="rgb(255, 255, 255)" stroke="none" stroke-width="1px">20</text><text style="text-anchor: end; visibility: hidden; font-family: Roboto, sans-serif; font-size: 12px; font-weight: 200;" x="0" y="151.59685625348774" dx="0em" dy="0.3em" fill="rgb(255, 255, 255)" stroke="none" stroke-width="1px">25</text><text style="text-anchor: end; visibility: hidden; font-family: Roboto, sans-serif; font-size: 12px; font-weight: 200;" x="0" y="138.9637848990304" dx="0em" dy="0.3em" fill="rgb(255, 255, 255)" stroke="none" stroke-width="1px">30</text><text style="text-anchor: end; visibility: inherit; font-family: Roboto, sans-serif; font-size: 12px; font-weight: 200;" x="0" y="126.3307135445731" dx="0em" dy="0.3em" fill="rgb(255, 255, 255)" stroke="none" stroke-width="1px">35</text><text style="text-anchor: end; visibility: hidden; font-family: Roboto, sans-serif; font-size: 12px; font-weight: 200;" x="0" y="113.69764219011579" dx="0em" dy="0.3em" fill="rgb(255, 255, 255)" stroke="none" stroke-width="1px">40</text><text style="text-anchor: end; visibility: hidden; font-family: Roboto, sans-serif; font-size: 12px; font-weight: 200;" x="0" y="101.06457083565847" dx="0em" dy="0.3em" fill="rgb(255, 255, 255)" stroke="none" stroke-width="1px">45</text><text style="text-anchor: end; visibility: inherit; font-family: Roboto, sans-serif; font-size: 12px; font-weight: 200;" x="0" y="88.43149948120117" dx="0em" dy="0.3em" fill="rgb(255, 255, 255)" stroke="none" stroke-width="1px">50</text><text style="text-anchor: end; visibility: hidden; font-family: Roboto, sans-serif; font-size: 12px; font-weight: 200;" x="0" y="75.79842812674387" dx="0em" dy="0.3em" fill="rgb(255, 255, 255)" stroke="none" stroke-width="1px">55</text><text style="text-anchor: end; visibility: hidden; font-family: Roboto, sans-serif; font-size: 12px; font-weight: 200;" x="0" y="63.16535677228654" dx="0em" dy="0.3em" fill="rgb(255, 255, 255)" stroke="none" stroke-width="1px">60</text><text style="text-anchor: end; visibility: inherit; font-family: Roboto, sans-serif; font-size: 12px; font-weight: 200;" x="0" y="50.532285417829236" dx="0em" dy="0.3em" fill="rgb(255, 255, 255)" stroke="none" stroke-width="1px">65</text><text style="text-anchor: end; visibility: hidden; font-family: Roboto, sans-serif; font-size: 12px; font-weight: 200;" x="0" y="37.899214063371936" dx="0em" dy="0.3em" fill="rgb(255, 255, 255)" stroke="none" stroke-width="1px">70</text><text style="text-anchor: end; visibility: hidden; font-family: Roboto, sans-serif; font-size: 12px; font-weight: 200;" x="0" y="25.26614270891463" dx="0em" dy="0.3em" fill="rgb(255, 255, 255)" stroke="none" stroke-width="1px">75</text><text style="text-anchor: end; visibility: inherit; font-family: Roboto, sans-serif; font-size: 12px; font-weight: 200;" x="0" y="12.633071354457305" dx="0em" dy="0.3em" fill="rgb(255, 255, 255)" stroke="none" stroke-width="1px">80</text><text style="text-anchor: end; visibility: hidden; font-family: Roboto, sans-serif; font-size: 12px; font-weight: 200;" x="0" y="0" dx="0em" dy="0.3em" fill="rgb(255, 255, 255)" stroke="none" stroke-width="1px">85</text></g><line x1="30.766000747680664" y1="0" x2="30.766000747680664" y2="176.86299896240234" fill="rgb(0, 0, 0)" stroke="rgb(204, 204, 204)" stroke-width="1px"></line></g></g><g transform="translate(30, 0)" clip-path="url(#clip_0)"><clipPath id="clip_0"><rect width="299" height="176"></rect></clipPath><g><g><g><line x1="0" y1="0" x2="0" y2="176.86299896240234" fill="rgb(0, 0, 0)" stroke="rgb(189, 189, 189)" stroke-width="1px" opacity="0.25"></line><line x1="24.936166604359943" y1="0" x2="24.936166604359943" y2="176.86299896240234" fill="rgb(0, 0, 0)" stroke="rgb(189, 189, 189)" stroke-width="1px" opacity="0.25"></line><line x1="49.87233320871989" y1="0" x2="49.87233320871989" y2="176.86299896240234" fill="rgb(0, 0, 0)" stroke="rgb(189, 189, 189)" stroke-width="1px" opacity="0.25"></line><line x1="74.80849981307983" y1="0" x2="74.80849981307983" y2="176.86299896240234" fill="rgb(0, 0, 0)" stroke="rgb(189, 189, 189)" stroke-width="1px" opacity="0.25"></line><line x1="99.74466641743977" y1="0" x2="99.74466641743977" y2="176.86299896240234" fill="rgb(0, 0, 0)" stroke="rgb(189, 189, 189)" stroke-width="1px" opacity="0.25"></line><line x1="124.68083302179973" y1="0" x2="124.68083302179973" y2="176.86299896240234" fill="rgb(0, 0, 0)" stroke="rgb(189, 189, 189)" stroke-width="1px" opacity="0.25"></line><line x1="149.61699962615967" y1="0" x2="149.61699962615967" y2="176.86299896240234" fill="rgb(0, 0, 0)" stroke="rgb(189, 189, 189)" stroke-width="1px" opacity="0.25"></line><line x1="174.55316623051962" y1="0" x2="174.55316623051962" y2="176.86299896240234" fill="rgb(0, 0, 0)" stroke="rgb(189, 189, 189)" stroke-width="1px" opacity="0.25"></line><line x1="199.48933283487955" y1="0" x2="199.48933283487955" y2="176.86299896240234" fill="rgb(0, 0, 0)" stroke="rgb(189, 189, 189)" stroke-width="1px" opacity="0.25"></line><line x1="224.4254994392395" y1="0" x2="224.4254994392395" y2="176.86299896240234" fill="rgb(0, 0, 0)" stroke="rgb(189, 189, 189)" stroke-width="1px" opacity="0.25"></line><line x1="249.36166604359946" y1="0" x2="249.36166604359946" y2="176.86299896240234" fill="rgb(0, 0, 0)" stroke="rgb(189, 189, 189)" stroke-width="1px" opacity="0.25"></line><line x1="274.29783264795935" y1="0" x2="274.29783264795935" y2="176.86299896240234" fill="rgb(0, 0, 0)" stroke="rgb(189, 189, 189)" stroke-width="1px" opacity="0.25"></line><line x1="299.23399925231934" y1="0" x2="299.23399925231934" y2="176.86299896240234" fill="rgb(0, 0, 0)" stroke="rgb(189, 189, 189)" stroke-width="1px" opacity="0.25"></line></g><g><line x1="0" y1="176.86299896240234" x2="299.23399925231934" y2="176.86299896240234" fill="rgb(0, 0, 0)" stroke="rgb(189, 189, 189)" stroke-width="1px" opacity="0.25"></line><line x1="0" y1="164.22992760794503" x2="299.23399925231934" y2="164.22992760794503" fill="rgb(0, 0, 0)" stroke="rgb(189, 189, 189)" stroke-width="1px" opacity="0.25"></line><line x1="0" y1="151.59685625348774" x2="299.23399925231934" y2="151.59685625348774" fill="rgb(0, 0, 0)" stroke="rgb(189, 189, 189)" stroke-width="1px" opacity="0.25"></line><line x1="0" y1="138.9637848990304" x2="299.23399925231934" y2="138.9637848990304" fill="rgb(0, 0, 0)" stroke="rgb(189, 189, 189)" stroke-width="1px" opacity="0.25"></line><line x1="0" y1="126.3307135445731" x2="299.23399925231934" y2="126.3307135445731" fill="rgb(0, 0, 0)" stroke="rgb(189, 189, 189)" stroke-width="1px" opacity="0.25"></line><line x1="0" y1="113.69764219011579" x2="299.23399925231934" y2="113.69764219011579" fill="rgb(0, 0, 0)" stroke="rgb(189, 189, 189)" stroke-width="1px" opacity="0.25"></line><line x1="0" y1="101.06457083565847" x2="299.23399925231934" y2="101.06457083565847" fill="rgb(0, 0, 0)" stroke="rgb(189, 189, 189)" stroke-width="1px" opacity="0.25"></line><line x1="0" y1="88.43149948120117" x2="299.23399925231934" y2="88.43149948120117" fill="rgb(0, 0, 0)" stroke="rgb(189, 189, 189)" stroke-width="1px" opacity="0.25"></line><line x1="0" y1="75.79842812674387" x2="299.23399925231934" y2="75.79842812674387" fill="rgb(0, 0, 0)" stroke="rgb(189, 189, 189)" stroke-width="1px" opacity="0.25"></line><line x1="0" y1="63.16535677228654" x2="299.23399925231934" y2="63.16535677228654" fill="rgb(0, 0, 0)" stroke="rgb(189, 189, 189)" stroke-width="1px" opacity="0.25"></line><line x1="0" y1="50.532285417829236" x2="299.23399925231934" y2="50.532285417829236" fill="rgb(0, 0, 0)" stroke="rgb(189, 189, 189)" stroke-width="1px" opacity="0.25"></line><line x1="0" y1="37.899214063371936" x2="299.23399925231934" y2="37.899214063371936" fill="rgb(0, 0, 0)" stroke="rgb(189, 189, 189)" stroke-width="1px" opacity="0.25"></line><line x1="0" y1="25.26614270891463" x2="299.23399925231934" y2="25.26614270891463" fill="rgb(0, 0, 0)" stroke="rgb(189, 189, 189)" stroke-width="1px" opacity="0.25"></line><line x1="0" y1="12.633071354457305" x2="299.23399925231934" y2="12.633071354457305" fill="rgb(0, 0, 0)" stroke="rgb(189, 189, 189)" stroke-width="1px" opacity="0.25"></line><line x1="0" y1="0" x2="299.23399925231934" y2="0" fill="rgb(0, 0, 0)" stroke="rgb(189, 189, 189)" stroke-width="1px" opacity="0.25"></line></g></g></g><g><g><line x1="0" y1="214.76221302577426" x2="299.23399925231934" y2="214.76221302577426" fill="rgb(0, 0, 0)" stroke="rgb(153, 153, 153)" stroke-width="1.5px"></line></g></g><g><g><line x1="24.936166604359943" y1="0" x2="24.936166604359943" y2="176.86299896240234" fill="rgb(0, 0, 0)" stroke="rgb(153, 153, 153)" stroke-width="1.5px"></line></g></g><g><g><g><g><g><path style="fill: none;" stroke="rgb(255, 112, 67)" stroke-width="2px" d="M29.923399925231934,180.41367153168667L30.222633924484256,175.9891371358107L30.272506257692974,173.95799129407737L30.870974256197613,170.1550414708136L31.245016755263013,166.4784898625981L31.269952921867368,163.89494123507944L31.619059254328413,160.3003147287915L31.91829325358073,158.21573302173894L31.993101753393805,157.4135448601842L32.19259108622869,156.8211970116204L32.26739958604177,154.09426784977916L32.51676125208537,153.07450476299323L33.040420750776924,150.5087562126517L33.115229250590005,148.80913848075096L33.190037750403086,146.11990888519168L33.788505748907724,144.48394072741215L34.08773974816005,145.5561847639835L34.2373567477862,144.71692490478785L34.28722908099492,143.05984440207553L34.58646308024724,145.4356492224019L34.78595241308212,145.50349847299842L34.885697079499565,142.75747279126944L35.18493107875188,142.3222765720763L35.509101244608566,143.2150706699141L35.68365441083908,143.34201906257027L36.03276074330012,144.91097260451954L36.05769690990448,143.53598232369367L36.107569243113204,142.38825088032945L36.28212240934372,141.62042330920286L36.65616490840912,140.99803782659814L36.75590957482656,143.37249984878756L37.00527124087016,140.9411757093163L37.12995207389196,141.18815444156465L37.15488824049632,142.66187027850168L37.304505240122474,140.77430656449937L37.87803707202276,140.25196942739495L37.927909405231475,139.29393000230627L37.95284557183583,140.53252363244067L38.05259023825328,143.11746299562105L38.45156890392303,140.15945282337242L38.57624973694484,143.13106053360372L38.62612207015355,141.39611317935132L38.92535606940587,138.8993901185862L39.02510073582331,140.38797940614862L39.17471773544947,139.91577929823487L39.87293040037155,137.61786460978544L39.97267506678899,139.1351315320086L40.02254739999771,138.44722109069846L40.82050473133723,140.16358966628167L40.84544089794159,138.07894100189404L41.044930230776465,139.95445377395333L41.19454723040263,141.55059680436224L41.21948339700699,142.53893768969954L41.56858972946802,142.48473739419788L41.793015228907265,140.61013475878823L41.992504561742145,142.69045203472442L42.466291727224984,144.07375071530234L43.1395682255427,143.44744368779723L43.23931289196014,143.38383183045505L43.713100057442986,144.21004927258195L44.21182338953018,149.04930378190292L44.48612122217814,149.89582454321112L44.5110573887825,145.2320806556944L44.66067438840866,149.3185526040893L44.81029138803482,147.85224684613223L45.20927005370458,148.5665092319413L45.23420622030894,149.31594042241537L45.28407855351765,148.54230684326626L45.583312552769975,149.3926428808925L45.90748271862666,151.00750106196082L46.530886883735654,148.7861491287851L46.755312383174896,153.23986977946666L46.8799932161967,155.0361050213327L47.2540357152621,152.87946091444815L47.52833354791005,151.83810841240685L47.628078214327495,153.9915676245618L48.35122704585393,158.56778157453772L48.65046104510625,154.3952607056104L48.825014211336764,156.09856081317218L50.071822541554766,155.4736069075598L50.14663104136785,158.26473143443087L50.19650337457657,159.73293904130318L50.470801207224525,156.32412203039502L50.64535437345505,160.39717686946335L50.745099039872485,162.27872045912127L50.79497137308121,162.4365717734833L51.01939687252045,162.92617616485728L51.493184038003285,163.19612793539665L51.84229037046432,162.23893051319945L51.86722653706869,159.59926911256431L51.9170988702774,162.3010791810046L52.01684353669484,162.66871688865902L52.241269036134085,166.87724064500168L52.54050303538641,166.9183261879997L52.640247701803844,166.51486719055035L52.69012003501256,165.00253145436938L52.81480086803436,168.89771805703796L52.864673201243086,167.87853029887353L53.114034867286676,165.86280409552674L53.21377953370413,166.53667233379323L53.388332699934644,165.69710199012314L53.43820503314336,162.6361011196191L53.737439032395685,168.95401873848255L53.862119865417476,164.90023461992473L53.887056032021846,164.6536701558041L54.18629003127416,160.5288626170585L54.43565169731776,160.0205671833019L54.485524030526484,161.24366711809333L54.68501336336136,159.10184010638278L54.9094388628006,160.52852813855563L54.934375029404954,158.27280145301557L55.53284302790959,156.79416321710625L55.70739619414012,153.6306650185175L56.23105569283168,152.18999353783326L56.35573652585347,153.1250944135072L56.380672692457836,155.47034992179226L56.430545025666554,161.85754347710133L56.505353525479634,159.0251698154957L56.60509819189708,156.29593720324283L56.75471519152324,153.92686512233942L56.854459857940675,153.35978026122436L56.979140690962474,159.18792996190163L57.527736356258394,162.32756342667022L57.72722568909327,161.85875647441335L58.12620435476303,161.0066112310746L58.20101285457611,159.9283109928712L58.69973618666331,162.99484724705255L59.073778685728705,160.2528108336195L59.17352335214615,165.12861959364497L59.44782118479411,165.7380782795772L59.47275735139847,164.2644528455268L60.495140182177224,162.60514844617785L61.01879968086878,166.3461312101141L61.043735847473144,164.89679083060176L61.49258684635162,169.07067037122292L61.517523012955984,169.77045455229538L61.91650167862574,162.71870721031L61.96637401183447,162.58346772643412L62.3154803442955,161.14303940678104L62.415225010712945,162.60005743525537L62.61471434354782,162.45370010080174L62.814203676382704,164.08961822301325L62.889012176195784,158.84487335035823L62.96382067600886,156.18328752294738L63.26305467526118,158.57980559615933L63.76177800734838,160.31069470784303L63.83658650716146,162.73334600121981L64.18569283962249,161.0824711532912L64.26050133943558,162.62796728799876L64.38518217245738,163.3329773380137L64.45999067227046,161.45298063443883L64.6844161717097,160.99417300105932L64.95871400435766,162.1135168495476L65.08339483737946,164.08062653176083L65.13326717058818,164.0989792778872L65.73173516909281,162.71342756172518L65.93122450192769,159.73157046363178L65.98109683513641,161.52213195403363L66.80399033308029,158.7080679280402L67.02841583251953,159.01835559353174L67.17803283214569,157.42884022438628L67.40245833158494,150.9098807589924L67.60194766441981,148.08080243885757L67.65181999762854,150.58615921095148L67.72662849744161,155.8672038552041L67.82637316385905,156.50799078031412L68.00092633008957,160.19263800070544L68.67420282840729,157.4449832208207L69.4222878265381,149.65728183790128L69.4721601597468,153.83867140875688L69.77139415899913,149.94714227432038L69.8462026588122,147.66681651401396L70.04569199164709,144.9663249493317L71.217691822052,148.99636781338174L71.31743648846944,143.63962819178573L71.54186198790869,144.48497420396447L71.66654282093047,142.252113264321L71.7164151541392,143.6292548086324L72.24007465283076,141.4051315595328L72.51437248547872,139.01834695576383L72.5891809852918,140.14358678427405L72.73879798491797,138.0174860530709L72.76373415152231,134.79264218201808L73.13777665058772,130.58500664504365L73.16271281719207,132.60998829864153L73.43701064984003,136.62021570346562L73.53675531625747,138.86360028817666L73.66143614927928,137.2290072893691L73.711308482488,135.50870723576796L74.03547864834468,136.91075395535128L74.06041481494904,134.5150870001982L74.18509564797084,130.15999712905696L74.45939348061879,128.34455320801305L74.50926581382751,125.89954912073864L74.7087551466624,118.55614245775735L76.77845697482427,114.70327714660975L77.00288247426352,111.71222285374058L77.2522441403071,110.49801634426022L77.52654197295507,107.47369834726717L77.8756483054161,107.74093275794755L77.90058447202047,105.73036255633342L78.0003291384379,105.39594140321073L78.02526530504227,102.0982366754231L78.19981847127278,102.33402647076723L78.4990524705251,100.68968888361881L79.2471374686559,100.1110857007993L79.87054163376492,98.2278043212969L80.2445841328303,93.60017422172614L80.39420113245646,92.77450799209281L80.9926691309611,90.90547104816595L81.1173499639829,85.0720252314462L82.03998812834422,76.94798067555986L82.91275395949683,75.89264897966672L82.9875624593099,73.4169696400272L83.56109429121017,68.75187205238586L83.98500912348429,64.44166665267005L84.7330941216151,57.61554550870341L84.83283878803252,56.78518769936058L84.8577749546369,55.80675147092146L85.90509395202001,53.802402317146225L86.02977478504181,49.78893566408096L86.3539449508985,46.33535147832445L86.55343428373337,46.46852567806401L86.62824278354644,47.3124477685715L87.12696611563365,42.74575287690433L87.32645544846852,37.898997936016606L87.45113628149034,36.42800447722016L87.57581711451213,34.5634970617236L87.92492344697317,35.8267547486755L87.97479578018188,36.263113386007426L88.19922127962113,35.552054420107545L88.24909361282984,34.2054460612424L89.1467956105868,31.47593965991483L89.42109344323477,30.135606602288714L89.44602960983912,27.4600571549786L89.69539127588273,27.67770878265708L89.96968910853069,23.502410226372756L90.14424227476121,22.143320876746277L90.46841244061788,23.898860396093045L90.66790177345275,24.865466930754586L90.69283794005712,24.09966624682026L90.86739110628763,22.45107523196234L90.96713577270508,21.67844293935228L91.06688043912253,20.785393403478626L91.54066760460536,19.799282797798124L91.74015693744023,16.412828135205157L91.7650931040446,17.075626595281662L91.83990160385768,17.024081335504345L92.0144547700882,17.035896432886837L92.08926326990128,15.803590693180324L92.13913560310999,14.654107258686158L92.21394410292307,15.918261125472664L92.31368876934052,17.503517938948118L92.53811426877976,17.72556585555053L92.68773126840593,16.66576723324378L92.81241210142771,18.55099354308812L92.91215676784515,20.55447552449986L93.21139076709747,19.704980933384828L93.23632693370183,14.492207988868378L93.33607160011927,16.522090710892112L93.46075243314108,16.421036841908915L93.48568859974543,16.578118294290626L93.80985876560212,15.568520912118615L93.83479493220646,15.50699513961675L93.85973109881083,11.350772997355616L93.98441193183262,10.86018970710171L94.10909276485444,11.568603889371133L94.1839012646675,11.111412537577804L94.43326293071111,13.76645678259441L94.60781609694162,13.65838685689927L95.28109259525935,12.210675951907842L95.82968826055526,8.801334306975793L96.07904992659887,7.115571215761569L96.50296475887299,9.976209189221862L96.52790092547734,10.6052111885538L97.00168809096019,9.274276408271957L97.9243262553215,9.367412429270807L97.99913475513459,10.233326433370255L98.32330492099126,9.7036221985429L98.77215591986975,11.89246421204312L98.84696441968282,14.791686279582443L99.02151758591334,12.438806376087921L99.09632608572642,11.574131856132128L99.29581541856129,8.874254955648249L99.61998558441799,7.037865204026332L99.86934725046157,9.064105476097824L100.44287908236186,12.590214383116173L100.81692158142725,13.060871388597983L101.14109174728394,10.458734807426726L102.0387937450409,11.988234150864866L102.06372991164525,15.653087444085775L102.5375170771281,16.666493718265478L102.56245324373245,16.999143622668885L102.58738941033681,14.478433415800227L102.83675107638041,14.811489226619075L102.93649574279785,18.63805373351336L102.96143190940222,19.026864175533145L102.98636807600657,20.342601854985592L103.11104890902838,20.17828611210067L103.1609212422371,18.087920879562986L103.58483607451122,18.99416977189439L104.28304873943328,17.21789168781373L104.40772957245508,16.41365768216063L104.75683590491613,13.965186365708474L104.93138907114665,14.303590974914174L105.05606990416845,17.114118146371005L105.38024007002512,19.308118374308986L105.4550485698382,21.632138792977585L105.50492090304694,24.05940084285284L105.67947406927745,24.22391085807417L105.97870806852977,27.590963025881333L106.57717606703442,26.69805580249218L106.65198456684747,26.704876797597965L107.59955889781315,28.01396336195518L108.4473885623614,31.700202361587095L108.84636722803117,36.70755067478863L109.29521822690964,38.21071738999008L109.41989905993142,38.337665946173416L109.54457989295324,36.398794784215085L109.56951605955759,38.727069434599976L109.76900539239249,41.89214969037696L110.04330322504045,41.10760440000454L110.39240955750148,40.13071863865043L110.59189889033635,41.24633193441843L110.79138822317124,38.8920129817992L110.91606905619302,39.33197279147864L111.46466472148896,40.25445380416355L111.63921788771947,38.06504792385776L112.01326038678488,37.475160718640026L112.03819655338923,37.60068940304841L112.06313271999359,41.45073367393964L112.21274971961975,42.71224730655939L112.26262205282846,41.27954442385003L112.43717521905899,40.80898091437465L113.08551555077236,37.43325127265739L113.53436654965083,36.726863131822945L113.68398354927699,36.875570006452996L114.08296221494675,39.314316089042926L114.15777071475983,40.23339127975421L114.33232388099034,38.2715931850323L114.63155788024267,41.80720967767494L114.93079187949499,42.30559587728968L115.25496204535166,41.345748195513615L115.27989821195602,43.482619795173L115.32977054516475,42.64533617392038L115.67887687762578,46.54983367615957L116.27734487613043,45.85064215439113L116.35215337594349,43.072612154893044L116.40202570915223,45.16432611549498L116.45189804236094,43.30841072102237L116.52670654217403,43.83001119601817L116.62645120859146,39.480670499919064L116.70125970840455,40.19141938466384L117.17504687388738,41.17003532658551L117.424408539931,41.67815262397834L117.7236425391833,43.42732879565129L117.84832337220509,42.23097242772905L118.54653603712718,44.48768329854728L118.57147220373153,48.013393280777535L118.62134453694024,46.643230651179415L118.74602536996206,47.056146243984934L118.7709615365664,46.207231164895006L118.94551470279694,47.826943106272665L118.99538703600565,50.83932502960021L119.4691742014885,54.22019100792133L119.49411036809285,48.933054577754056L119.5938550345103,49.65998971429662L119.66866353432337,48.66470674108813L120.24219536622365,49.482231637573214L120.49155703226725,51.828482197545355L121.11496119737625,51.08183794957587L121.16483353058497,52.1006277214061L121.41419519662857,52.36217995672651L121.6386206960678,53.03234291515546L122.46151419401168,55.07704140002836L122.68593969345092,53.850209527908284L122.78568435986837,52.73448988944433L122.93530135949453,54.19456343928416L123.23453535874684,54.938978614657955L123.30934385855993,57.93474025055909L123.73325869083403,58.71186241156795L123.83300335725148,58.55316337027012L124.05742885669073,61.041215379202995L124.28185435612997,62.91955082584767L124.43147135575613,63.13708402077094L125.20449252049129,68.89763762351066L125.2543648537,73.15631228424014L125.47879035313925,76.52632604800334L125.7530881857872,80.53424328162862L125.90270518541337,81.56005991217508L126.07725835164388,82.88902769617214L126.9998965160052,88.2843119452336L127.62330068111419,93.32267376803345L127.77291768074035,96.74988327059303L127.92253468036651,100.81343165157003L127.9973431801796,102.46682274749935L128.54593884547552,106.58591281073731L128.79530051151912,111.339756479569L129.41870467662812,114.91815093388637L129.69300250927608,116.80122737482719L130.06704500834147,119.61137129007757L130.41615134080251,120.21697699562881L130.56576834042866,120.7228341671097L131.03955550591152,122.71943489016478L131.11436400572458,123.7140887198379L131.18917250553767,122.84784403263303L131.31385333855948,123.08955951415436L131.9123213370641,123.87190338126858L132.83495950142543,126.41568470944212L132.95964033444724,127.40870985416215L133.08432116746903,126.99857195257178L133.23393816709518,126.92660597212225L134.2812571644783,127.59576722836714L134.35606566429138,127.88509839456599L134.75504432996112,129.2241318532651L134.95453366279602,130.47816535251047L135.05427832921345,130.96577728442662L135.42832082827886,132.76825831687592L135.47819316148758,132.53862911672408L135.75249099413554,132.39300713172307L135.9519803269704,131.39349550755233L136.22627815961837,131.90170139182644L136.5255121588707,132.6729007337056L137.09904399077098,133.04021375000545L137.24866099039713,133.3639500971378L137.99674598852795,133.10312612953757L138.24610765457155,131.75401184002257L138.34585232098897,132.39373243402616L138.96925648609798,130.03508289144605L139.0690011525154,128.30361047815694L139.21861815214157,127.00534507098673L139.41810748497645,125.88827873661161L140.0165754834811,126.48727456394117L140.09138398329418,126.8832596659525L140.16619248310724,125.35615003524407L141.08883064746857,125.64456842422724L141.21351148049035,124.19442287268275L141.3132561469078,124.22241455655175L141.33819231351217,124.06923650570404L141.41300081332525,123.25154707143268L141.53768164634704,123.18084165993606L141.811979478995,122.21104619763112L142.0114688118299,122.67365013069163L142.11121347824732,122.44919561841954L142.16108581145605,121.069517705853L142.31070281108222,121.87720630824826L142.5101921439171,122.39340842992478L142.53512831052143,122.49143935620384L142.6847453101476,122.49742169580769L142.7595538099607,123.23865465225416L143.1086601424217,123.28671482885908L143.28321330865225,122.0404855349716L143.83180897394817,122.82830484455938L144.00636214017868,123.1959903547008L144.15597913980486,123.38975604704146L144.25572380622228,122.97664414382136L144.28065997282664,122.85272372534178L144.95393647114435,122.73524657175071L145.02874497095743,122.99009322836385L145.10355347077052,123.61649409213159L145.20329813718797,123.33182551389362L145.60227680285772,122.06183465735307L145.65214913606644,122.50369367169375L145.70202146927517,121.87123609110802L145.7269576358795,120.44380885157331L145.75189380248386,121.01801642131718L145.95138313531876,122.44320019168867L146.89895746628443,121.91990323096516L147.22312763214111,123.49188605636019L147.59717013120652,120.7103046120711L148.07095729668936,122.31492458810384L148.17070196310678,121.51145988731L148.34525512933732,119.72233345109068L148.44499979575474,121.6941629573083L148.56968062877655,123.37403537095334L149.3427017935117,124.58072708968261L149.5920634595553,122.4484487515687L149.61699962615967,120.32794499853522L150.4149569574992,116.88842998890927L151.01342495600383,118.87619432328923L151.36253128846488,118.59309200457962L151.48721212148666,117.64341481180969L151.81138228734332,117.09436355048472L151.83631845394768,117.68773881570331L152.03580778678258,116.29438136735946L152.0856801199913,115.15091016811283L152.21036095301312,115.66989354845653L153.13299911737442,115.8421720488266L153.23274378379185,115.93578217791263L153.3324884502093,115.95473502952282L153.60678628285726,115.3806557953421L153.63172244946162,115.00010662740983L153.68159478267032,114.33099287564002L153.7065309492747,113.72568540257596L154.5044882806142,113.05583911512517L154.77878611326219,112.63928651289106L154.82865844647088,113.17930362390126L154.9533392794927,112.68252495848346L155.00321161270142,112.8084095972786L155.1278924457232,113.22175455306314L155.27750944534938,112.1347329322655L155.4520626115799,112.20463254899188L155.77623277743655,111.23720313188993L156.150275276502,112.84129839422972L156.27495610952377,112.57246499169904L156.3747007759412,112.19978111488594L156.4495092757543,113.0884649448314L156.97316877444584,115.4402136982651L157.19759427388507,117.1803171170686L157.77112610578536,118.13530490050418L157.79606227238972,118.59143856849738L157.8708707722028,119.28519540506942L157.92074310541153,120.13386352502137L158.02048777182898,118.52199617148021L158.17010477145513,120.15232993599288L158.86831743637723,122.1007696925877L159.06780676921207,122.27458869413448L159.64133860111235,124.34332204066695L159.86576410055162,125.27752001120932L159.89070026715595,126.33607106014628L160.239806599617,128.03051592419905L160.41435976584754,129.52140048524495L160.9380192645391,131.96486476955485L161.1125724307696,132.7874208165562L161.1624447639783,133.6004020580971L161.23725326379142,132.7757971999078L161.28712559700014,133.1471855492686L162.40925309419632,135.00767688174787L162.53393392721813,135.57333067112754L162.5588700938225,135.57257908114474L162.73342326005297,136.46471675821442L162.83316792647045,136.13509666439273L162.88304025967915,136.03282986435013L163.4316359249751,136.87197634791534L163.98023159027102,137.55103951885206L164.90286975463232,137.69141535050318L165.87538025220235,136.79925807012674L166.12474191824597,136.70522787048355L166.473848250707,136.1678209297601L166.97257158279422,135.6863848393243L167.87027358055116,134.58909206405622L168.04482674678167,133.1078570766241L168.29418841282526,131.61143860728748L168.5934224120776,129.8825682989428L168.66823091189067,128.36730870246714L168.71810324509937,128.13758197894043L168.74303941170373,127.69748272483702L169.0921457441648,125.88499497904301L169.31657124360402,124.43384957464754L169.51606057643892,124.0598947132805L170.5883157404264,122.31901426514928L171.4361454049746,118.2084576695989L171.7603155708313,116.18431061730033L171.78525173743563,112.33912797275518L171.83512407064438,111.31410689027325L173.48091106653214,106.33574982139436L173.60559189955396,104.71213855800447L173.68040039936702,99.7183981485594L173.8798897322019,97.25834939160114L174.30380456447602,94.18756792215966L174.52823006391526,91.45480407639872L174.70278323014577,89.51456685582183L174.85240022977194,88.73230992024526L175.0020172293981,86.98562402105101L175.02695339600245,86.17280174858395L175.89971922715503,82.19385149440825L176.09920855998993,81.05709687045372L176.67274039189022,78.29252029780758L176.72261272509894,76.6320200620659L176.7475488917033,75.44902733294403L177.44576155662537,72.37942702190982L177.54550622304282,71.84896334633036L177.59537855625155,70.80712892484914L178.0941018883387,68.13161892068698L178.21878272136053,67.05449163565339L178.26865505456925,66.8585625657602L178.31852738777795,67.28368771470718L178.96686771949132,62.678939136417206L179.88950588385262,60.61636197403186L180.0391228834788,58.479800614052294L180.28848454952242,56.510315230511836L180.38822921593984,54.20724093176405L180.48797388235727,54.8775251164042L180.6625270485878,53.83304780961843L180.83708021481831,52.83069952525772L181.0365695476532,51.070043494814854L181.73478221257525,49.77522152378122L181.784654545784,47.49461312522546L181.95920771201452,45.62984755693479L182.1586970448494,45.074613037378185L182.18363321145375,44.011229363000425L182.25844171126684,43.95173918454356L182.60754804372786,42.7073016945612L182.95665437618894,40.88090829005566L183.05639904260636,39.85211335123608L183.10627137581508,39.02782135364197L183.43044154167174,39.57812614232562L183.7047393743197,39.54078389060258L183.72967554092406,38.547518411202645L183.85435637394588,35.87981866254996L183.9042287071546,34.454548984661855L183.97903720696766,33.18607951346713L184.901675371329,34.332853032878404L185.35052637020746,36.197892118652746L185.8243135356903,38.73707353045066L185.97393053531647,41.8652713832238L186.22329220136007,43.72534280111257L186.57239853382112,45.009486320572385L187.02124953269958,50.981028384311365L187.09605803251264,54.44996913120263L187.120994199117,56.74269244933621L187.9438876970609,65.22642835224559L188.01869619687398,68.6653350965668L188.2431216963132,70.07407986028451L188.39273869593939,72.54650785001824L188.51741952896117,75.3940389138187L188.54235569556553,76.09908773747611L188.84158969481786,78.4279470014581L188.96627052783964,79.15562720797169L189.3652491935094,81.51956337056947L189.48993002653123,83.33997538279426L189.61461085955304,84.2339164044586L189.71435552597046,83.66569535889626L190.1133341916402,85.68184287727927L190.46244052410125,85.90859748557072L190.96116385618845,87.18965722844402L191.26039785544077,89.15379295549243L191.5596318546931,91.51149140469417L192.4323976858457,94.40048956715331L192.60695085207624,95.04322030327666L192.73163168509802,96.1964194450628L192.78150401830672,96.34328693608845L192.83137635151544,97.2404961205588L192.98099335114162,98.4248111800223L193.08073801755904,96.34161201572857L193.4797166832288,97.49878760088582L193.75401451587675,97.94883229038952L193.80388684908547,99.2975737848891L194.1280570149422,100.94640122654951L194.3524825143814,100.77053038636869L194.77639734665553,99.91416313488209L195.25018451213836,100.35479683387635L195.49954617818196,101.69709470523978L195.64916317780813,102.83305944018475L195.77384401082992,104.27363302252989L195.82371634403864,104.4680556241132L195.97333334366482,103.91498994486288L196.19775884310403,105.16223970952092L196.5967375087738,106.39683693952124L197.56924800634386,105.02291985838077L197.61912033955255,105.23291638695669L197.69392883936564,104.81760155619439L197.9682266720136,104.7835927676979L198.14277983824414,104.74818008240032L198.69137550354006,106.13810720718703L199.0903541692098,105.62189783311347L199.48933283487955,107.31887684712238L199.61401366790136,106.41598883633841L199.6638860011101,106.93600948537976L199.73869450092315,108.28045727386329L200.0129923335711,108.51081768751554L200.16260933319728,108.29054090811002L200.41197099924085,108.94654238200987L200.4369071658452,109.39470099102591L200.81094966491065,109.11126070372825L201.03537516434986,109.70311160682236L201.06031133095425,108.85107174410838L201.8832048288981,109.30331018574611L202.45673666079838,110.98673507344358L202.63128982702892,111.38207227456668L202.70609832684198,111.09330227600618L202.85571532646813,112.87444723978L203.80328965743385,112.8502698638533L204.1274598232905,113.69778892727548L204.15239598989487,112.06876407676276L204.2022683231036,112.671504324166L204.35188532272974,113.58785484182884L204.42669382254283,114.37906630448585L204.8755448214213,114.52933365381683L205.3243958202998,113.70798774917787L205.92286381880444,113.0973752967085L206.02260848522187,112.87946116794275L206.3218424844742,111.58413870014246L206.54626798391342,110.88919052261477L207.02005514939626,111.7768098402739L207.2444806488355,111.79064743043696L207.39409764846167,111.97888900727034L208.04243798017504,112.31976682590805L208.14218264659246,110.89685896881403L208.19205497980118,111.28171223650673L208.51622514565784,112.32667888496144L208.64090597867965,111.07782372478593L208.76558681170147,111.65483078197998L208.8653314781189,111.4324639409578L209.1146931441625,111.88838470697914L209.3141824769974,111.75725096161344L210.1121398083369,112.62248986749692L210.28669297456742,113.18130048807167L210.56099080721538,112.91943138541653L210.58592697381974,112.84398136104731L210.6607354736328,113.30808052192538L210.7355439734459,112.89721960231877L211.18439497232436,112.94709416142318L211.2841396387418,113.26189157542953L211.38388430515926,111.72354586238552L211.43375663836798,112.04303027386743L211.7329906376203,112.35323205788187L212.33145863612492,112.72025980393045L212.63069263537724,112.94128618729701L212.83018196821214,112.71401882038371L212.9797989678383,113.42892852499489L213.25409680048625,112.69466719296648L213.45358613332115,111.89864624290108L213.50345846652985,112.72113416393262L213.653075466156,111.5140521292263L213.80269246578217,111.54650361586724L214.1019264650345,110.78401791940996L214.50090513070424,111.56092931432839L214.67545829693478,112.21361220776048L214.72533063014347,111.3837794815044L214.7752029633522,111.09552021568015L214.8500114631653,111.79763156025793L215.62303262790044,112.55581023301524L215.6479687945048,112.07899655714722L215.7726496275266,113.50200315302092L216.12175595998764,112.8229690056026L216.17162829319636,112.08529518440884L216.19656445980073,112.11974933758711L216.79503245830537,111.33651059371869L217.69273445606234,112.65121580893796L217.84235145568846,113.02003381627044L217.86728762229282,112.35801933110109L217.91715995550155,112.75361229524616L218.56550028721492,113.49263570964399L218.59043645381928,114.60859675992707L218.66524495363237,114.99637744247778L218.6901811202367,116.67806858555417L219.5130746181806,115.76747131113726L219.53801078478497,115.0926197652448L219.887117117246,115.29508216862804L220.18635111649832,113.46511991610073L220.61026594877242,115.09179422267479L220.71001061518987,114.68877148279581L220.90949994802475,114.3978881752987L221.03418078104656,114.59184615721068L221.05911694765092,114.79712700883853L221.20873394727707,114.82698440781272L221.70745727936426,113.76270227609415L222.03162744522095,113.35420795682991L222.18124444484712,113.40423307203443L222.5552869439125,113.92088261039575L222.58022311051687,113.66883963988151L222.80464860995613,113.951944383758L222.85452094316483,113.55013925677328L222.8794571097692,112.08474456237117L223.0540102759997,111.1195131662464L224.30081860621772,111.71493742194829L225.2982652703921,112.52242480909234L225.37307377020517,112.20679698482112L225.39800993680953,111.5537243124475L225.44788227001825,112.06470905411314L225.7969886024793,111.16765983744796L225.99647793531418,109.94561629874053L226.27077576796214,111.14072591118122L226.57000976721446,112.03732315729148L226.59494593381882,112.71981685689967L226.76949910004933,113.03454179593176L227.04379693269732,112.74606576700418L227.69213726441066,113.51874650142344L227.8916265972455,114.45634629135826L228.19086059649783,115.12318373599491L228.24073292970658,115.9512886918087L228.36541376272837,115.3135429260502L228.7145200951894,115.82470530439842L228.73945626179378,116.1150471360311L228.78932859500247,115.6231234344252L229.26311576048533,116.51439982292999L229.43766892671587,116.57319968269276L229.63715825955072,116.37109383112023L229.66209442615508,117.57508558547615L230.0361369252205,116.31287370969015L230.06107309182485,115.9427274591659L230.36030709107717,116.08408746088114L230.38524325768154,117.22857090140631L231.00864742279055,117.51691158447672L231.55724308808647,116.80674566269113L231.7068600877126,117.24324310733986L231.78166858752567,117.5481821251707L231.80660475413003,117.37059789538674L231.90634942054749,117.50290659995848L232.03103025356927,116.85607126842541L232.1557110865911,117.49224022661124L233.35264708360037,115.19047313483942L233.42745558341343,115.11428423740549L233.70175341606142,114.7460713651554L233.77656191587448,113.00167561790587L233.92617891550063,112.70940295108109L234.05085974852244,112.42572765153177L234.25034908135734,111.70192806668155L234.54958308060966,112.06304600066942L234.89868941307068,112.24873079714405L235.02337024609247,111.45802223140008L235.5220935781797,110.9588462645602L236.02081691026686,110.26352600227382L236.04575307687125,109.52608554241785L236.14549774328867,107.96551091528124L236.89358274141946,106.95260942815507L237.21775290727615,106.84372048363204L237.6416677395503,106.13965678903047L237.86609323898952,103.98476758038541L238.09051873842876,102.30074527244564L238.314944237868,102.26062664810112L238.46456123749417,102.40940688719708L238.48949740409853,102.22825725343785L238.68898673693337,101.94266150377865L239.63656106789907,99.58938815101898L239.76124190092088,98.22015373105849L240.0604759001732,97.10396366451373L240.1103482333819,95.58630221196039L240.13528439998626,94.22268165495797L240.28490139961244,96.31901534070559L241.08285873095193,93.27580481832518L241.1826033973694,92.07643126480033L241.95562456210453,90.29716724327254L242.1052415617307,90.20889352956256L242.4294117275874,88.859439181274L242.55409256060918,87.80668442387329L242.70370956023535,87.89698689028207L243.20243289232252,87.76241108837846L243.40192222515742,86.5023517747883L243.45179455836615,85.87781021427749L244.00039022366207,86.07511660247363L244.05026255687076,84.39813987846182L244.2996242229144,83.13369195723517L244.57392205556235,82.40156175672121L244.67366672197977,82.06618891730685L244.7235390551885,80.70097205386202L244.89809222141903,79.23336376334441L245.0975815542539,78.84602485735375L245.172390054067,78.92912516478144L245.4217517201106,78.23935704560215L246.21970905145008,79.81100903066985L246.3443898844719,80.57900769514725L246.5189430507024,80.34494384756695L246.79324088335036,82.11944956856279L246.94285788297654,81.702602061922L247.11741104920705,82.12672078328703L247.391708881855,83.2021272625739L247.51638971487682,84.33204668656249L247.61613438129424,85.09416053225253L248.08992154677708,85.94600872601026L248.73826187849045,87.46713020018771L248.8380065449079,87.43106436370067L249.06243204434713,88.40738574695276L249.21204904397328,89.14436005710463L249.23698521057764,88.14734858602709L249.3367298769951,86.8854569880618L249.73570854266484,88.01393379184269L250.1346872083346,88.38299902163696L250.40898504098257,89.27810452082173L250.80796370665232,89.7321229513679L251.03238920609155,90.96860363424835L251.2069423723221,90.30950115056613L251.33162320534387,90.2965650062045L252.5036230357488,92.82532417254619L252.60336770216622,95.14371684710183L253.3763888669014,98.44352203431302L253.57587819973628,101.40206220648815L253.60081436634064,102.37027187783377L253.65068669954937,103.69983175524615L253.67562286615373,104.03702826411305L254.249154698054,106.42035344751498L254.32396319786707,108.27417274933207L254.39877169768013,108.88070394252274L254.57332486391067,110.4999139809933L254.64813336372376,111.08866735097101L254.77281419674557,112.20468895553341L254.872558863163,112.75315550150525L255.09698436260226,111.98546804104978L255.1219205292066,111.94722975121707L255.22166519562404,112.94930147279217L255.4211545284589,113.7104072396515L255.77026086091996,113.26702171960224L255.87000552733738,112.74568215665498L255.89494169394175,114.36392850226234L256.8425160249074,114.44282737868973L257.14175002415976,115.31452482590439L257.1916223573685,115.0694258473376L257.366175523599,115.13924121083093L257.61553718964257,116.01606554355283L257.64047335624696,114.96533123708144L257.74021802266435,114.06936282043435L257.79009035587313,113.59430931688377L257.8898350222905,113.96020343903739L257.96464352210364,114.77866969238437L258.1890690215429,114.10195826260643L258.3636221877734,114.98601963637928L258.5381753540039,115.322202370966L258.6877923536301,115.52359385174866L258.71272852023446,116.4191760895082L258.8623455198606,116.62073147250047L258.9870263528824,117.85700986081716L259.236388018926,117.5504876442307L259.48574968496956,117.26035292061918L259.63536668459574,118.656740106486L259.7849836842219,119.01077571757381L260.00940918366115,120.31690079188897L260.50813251574834,120.47501832834767L260.5829410155614,121.36781326632814L260.6328133487701,121.18475801050762L260.9320473480225,120.66442776622755L260.9569835146268,119.61938118492702L261.1564728474617,119.61650323866586L261.30608984708783,120.21667934490965L261.35596218029656,120.27878749072593L261.75494084596636,119.86896297022517L261.7798770125707,120.18643984421527L261.8048131791751,118.67818742092757L261.85468551238375,118.11236067939562L262.55289817730585,117.31319967868187L262.6526428437233,118.14531582667814L263.0017491761843,117.36515168780114L263.2261746756236,116.63213735230941L263.4506001750628,116.74834113979631L263.6999618411064,116.4195389831249L263.8246426741282,116.86106167288372L264.3732383394241,115.47296783037466L264.572727672259,114.93676663555016L264.7223446718852,113.39442729891023L265.0465148377419,111.09310260293967L265.8694083356857,111.37203357974764L266.2434508347511,110.68467301157716L266.31825933456423,108.94589523322828L266.34319550116857,108.73467132320401L266.4180040009816,110.04517716179352L266.6424295004209,110.0210165907392L266.7421741668383,108.95100938915648L266.84191883325576,109.4329101148807L267.1411528325081,109.12412597636673L267.16608899911245,108.80255511820091L267.34064216534296,108.60785535751681L267.9391101638476,107.5392984372398L267.9889824970563,107.98771598571135L268.36302499612174,106.82680366335345L268.38796116272607,106.7174288212505L268.4378334959348,105.31555137858396L268.53757816235225,104.8227401705073L268.6123866621653,104.11181238631717L268.83681216160454,105.16605665138809L269.23579082727434,104.45851888881441L269.3105993270874,104.41460883292977L269.4851524933179,104.12098514977475L269.8591949923833,104.4980903138901L270.1334928250313,102.77241230841804L270.45766299088797,102.6234694097916L270.78183315674465,100.87321436395703L271.1309394892057,101.63584314103362L271.20574798901873,101.19766431356494L271.3803011552493,100.66677687286496L271.8540883207321,100.53930552110234L271.8790244873365,100.36286118654287L272.053577653567,100.56580002189023L272.12838615338006,100.74851761559296L272.2031946531931,99.63446063435374L272.4276201526324,100.03830571637538L272.45255631923675,99.79975744348444L272.4774924858411,100.42035320612064L272.9263434847196,100.85001168524718L273.12583281755445,100.3447527032523L273.2255774839719,100.08686169073384L273.2505136505763,100.91966398391095L273.27544981718063,101.74329525702102L273.4250668168068,101.27574235938269L273.52481148322425,100.57838027143997L273.84898164908094,101.57507708019284L273.9736624821027,101.86792516055083L273.99859864870706,103.2235419667929L274.0734071485202,102.7075359732655L274.19808798154196,102.56640456855806L274.272896481355,102.3847399913826" fill="none"></path></g></g></g></g><g opacity="0.2"><g><g><g><path style="fill: none;" stroke="rgb(255, 112, 67)" stroke-width="2px" d="M29.449612759749094,182.46159447271015L29.923399925231934,173.8668371625382L30.222633924484256,169.0689263546569L30.272506257692974,170.78113102870597L30.870974256197613,164.20690660351227L31.245016755263013,160.7280265807012L31.269952921867368,159.85402356941134L31.619059254328413,154.67796493322135L31.91829325358073,154.95523864288094L31.993101753393805,156.15884152379087L32.19259108622869,155.89470477416555L32.26739958604177,149.82907250384244L32.51676125208537,151.47949105734878L33.040420750776924,146.49566286826342L33.115229250590005,146.15076224731953L33.190037750403086,141.9136781907181L33.788505748907724,141.92511881548748L34.08773974816005,147.2332843795643L34.2373567477862,143.40423642204655L34.28722908099492,140.46800055689488L34.58646308024724,149.15165161790773L34.78595241308212,145.60962165955405L34.885697079499565,138.46240698816982L35.18493107875188,141.64158505040436L35.509101244608566,144.61149220673707L35.68365441083908,143.54057936896135L36.03276074330012,147.36497686190353L36.05769690990448,141.38535650012471L36.107569243113204,140.59308118700844L36.28212240934372,140.41946223647474L36.65616490840912,140.02456309742536L36.75590957482656,147.08640198598962L37.00527124087016,137.13833538864773L37.12995207389196,141.5744545099504L37.15488824049632,144.9669129978038L37.304505240122474,137.82196331952892L37.87803707202276,139.43498057192522L37.927909405231475,137.7954580810152L37.95284557183583,142.46981110521384L38.05259023825328,147.16057328161966L38.45156890392303,135.53282152831795L38.57624973694484,147.77895977268284L38.62612207015355,138.68247757398245L38.92535606940587,134.9942591773897L39.02510073582331,142.71628572772045L39.17471773544947,139.1772098986775L39.87293040037155,134.02369035349275L39.97267506678899,141.5082926154858L40.02254739999771,137.3712586055724L40.82050473133723,142.84816615629637L40.84544089794159,134.81833668067245L41.044930230776465,142.8879481097384L41.19454723040263,144.04712821089925L41.21948339700699,144.08480420266298L41.56858972946802,142.39996257302866L41.793015228907265,137.6780639700706L41.992504561742145,145.94428162016305L42.466291727224984,146.23737172851398L43.1395682255427,142.467835260161L43.23931289196014,143.28433636127883L43.713100057442986,145.50233809231887L44.21182338953018,156.61839416827675L44.48612122217814,151.21986983653935L44.5110573887825,137.93750688291183L44.66067438840866,155.71021385670693L44.81029138803482,145.5587942503532L45.20927005370458,149.6836888610273L45.23420622030894,150.48812766905425L45.28407855351765,147.33226457844324L45.583312552769975,150.72265565769257L45.90748271862666,153.53330488363176L46.530886883735654,145.31172687433073L46.755312383174896,160.20594566899422L46.8799932161967,157.84560116886672L47.2540357152621,149.50624833701335L47.52833354791005,150.2093262938294L47.628078214327495,157.35979869998368L48.35122704585393,165.72544954757697L48.65046104510625,147.86901011574975L48.825014211336764,158.7626968788457L50.071822541554766,154.49611490134558L50.14663104136785,162.6303364636395L50.19650337457657,162.02936632384703L50.470801207224525,150.99238260307715L50.64535437345505,166.76785238698045L50.745099039872485,165.22164761217593L50.79497137308121,162.6834674190239L51.01939687252045,163.69196764880118L51.493184038003285,163.61836019188132L51.84229037046432,160.74177557078843L51.86722653706869,155.47056794746834L51.9170988702774,166.52698723677022L52.01684353669484,163.2437399698621L52.241269036134085,173.45980344338375L52.54050303538641,166.9825881911504L52.640247701803844,165.88381593812954L52.69012003501256,162.63708325162483L52.81480086803436,174.99018940992985L52.864673201243086,166.28441611302657L53.114034867286676,162.71000157234334L53.21377953370413,167.59067137313312L53.388332699934644,164.38392786284425L53.43820503314336,157.84838180934352L53.737439032395685,178.83588988593564L53.862119865417476,158.5597004857702L53.887056032021846,164.26801804525644L54.18629003127416,154.0772405692769L54.43565169731776,159.22554099204154L54.485524030526484,163.15672086225428L54.68501336336136,155.75180298550217L54.9094388628006,162.76001454785165L54.934375029404954,154.74461356024779L55.53284302790959,154.4814213609404L55.70739619414012,148.682629374571L56.23105569283168,149.93663558086556L56.35573652585347,154.58768809084347L56.380672692457836,159.1385700757765L56.430545025666554,171.8477692943796L56.505353525479634,154.59504690888176L56.60509819189708,152.02713747638586L56.75471519152324,150.22139340605457L56.854459857940675,152.47280137589053L56.979140690962474,168.30375385270455L57.527736356258394,167.23827217925697L57.72722568909327,161.12549431831928L58.12620435476303,159.67376867098065L58.20101285457611,158.24173882542487L58.69973618666331,167.79122446513105L59.073778685728705,155.96398464850625L59.17352335214615,172.7548845772746L59.44782118479411,166.69133417295836L59.47275735139847,161.9595515256018L60.495140182177224,160.0098261805295L61.01879968086878,172.1974119434503L61.043735847473144,162.6298738267491L61.49258684635162,175.59904606296374L61.517523012955984,170.86498878422924L61.91650167862574,151.68905111130715L61.96637401183447,162.371939302936L62.3154803442955,158.89006177860574L62.415225010712945,164.87898306953576L62.61471434354782,162.2247822187076L62.814203676382704,166.64836195262615L62.889012176195784,150.64155444697474L62.96382067600886,152.02029430571503L63.26305467526118,162.3282056593883L63.76177800734838,163.0179828056047L63.83658650716146,166.52262110111687L64.18569283962249,158.50033357063367L64.26050133943558,165.04528175510535L64.38518217245738,164.43568536496022L64.45999067227046,158.51247296987296L64.6844161717097,160.2765508052606L64.95871400435766,163.86428543308054L65.08339483737946,167.15738782958152L65.13326717058818,164.12768485516176L65.73173516909281,160.54628256977946L65.93122450192769,155.0676401307164L65.98109683513641,164.3227537723545L66.80399033308029,154.30658316943507L67.02841583251953,159.5036773267364L67.17803283214569,154.94267515982543L67.40245833158494,140.71355954388918L67.60194766441981,143.65583378428772L67.65181999762854,154.50479416217527L67.72662849744161,164.12729932441977L67.82637316385905,157.51024725292206L68.00092633008957,165.95580416593293L68.67420282840729,153.14736933433431L69.4222878265381,137.47651813641195L69.4721601597468,160.37879355804387L69.77139415899913,143.86039157686838L69.8462026588122,144.10015314532959L70.04569199164709,140.7424791686748L71.217691822052,155.29976819048565L71.31743648846944,135.26113801441764L71.54186198790869,145.80718206916706L71.66654282093047,138.75968974334018L71.7164151541392,145.783245429222L72.24007465283076,137.92637468273605L72.51437248547872,135.28517103704817L72.5891809852918,141.90357728527724L72.73879798491797,134.6920464478558L72.76373415152231,129.7486556144739L73.13777665058772,124.00383311285279L73.16271281719207,135.7772672952947L73.43701064984003,142.89262266998537L73.53675531625747,142.37248386939132L73.66143614927928,134.6723361886701L73.711308482488,132.8179815109046L74.03547864834468,139.10369882444314L74.06041481494904,130.76801817290752L74.18509564797084,123.34818989470784L74.45939348061879,125.50501271612384L74.50926581382751,122.0753119585915L74.7087551466624,107.07030126694049L76.77845697482427,108.67700063430196L77.00288247426352,107.03390716489398L77.2522441403071,108.59887282943195L77.52654197295507,102.74335481350883L77.8756483054161,108.15891478490916L77.90058447202047,102.58562454868058L78.0003291384379,104.8728724201214L78.02526530504227,96.94028825503732L78.19981847127278,102.70282589425416L78.4990524705251,98.11777624730976L79.2471374686559,99.20609097895337L79.87054163376492,95.2821590866906L80.2445841328303,86.36208611726927L80.39420113245646,91.48308132523049L80.9926691309611,87.98210557176748L81.1173499639829,75.94791767196148L82.03998812834422,64.24114175481456L82.91275395949683,74.24200196814158L82.9875624593099,69.5447532370013L83.56109429121017,61.455180953767346L83.98500912348429,57.700063335165865L84.7330941216151,46.938791924550394L84.83283878803252,55.48642292064489L84.8577749546369,54.276376857209L85.90509395202001,50.667394666369574L86.02977478504181,43.51146218108146L86.3539449508985,40.93359159803866L86.55343428373337,46.67682378534893L86.62824278354644,48.63242847423701L87.12696611563365,35.60297368737354L87.32645544846852,30.318176105397296L87.45113628149034,34.12721983653858L87.57581711451213,31.647216232357156L87.92492344697317,37.802619335959236L87.97479578018188,36.945623049526645L88.19922127962113,34.43988526831547L88.24909361282984,32.09921247429947L89.1467956105868,27.206711698863995L89.42109344323477,28.03918823010422L89.44602960983912,23.275223404057655L89.69539127588273,28.01813825159001L89.96968910853069,16.97181504859472L90.14424227476121,20.017565740151L90.46841244061788,26.644704259686744L90.66790177345275,26.37733869009702L90.69283794005712,22.901875433487078L90.86739110628763,19.872509798466595L90.96713577270508,20.46996678937244L91.06688043912253,19.388572334548066L91.54066760460536,18.256904670964502L91.74015693744023,11.116065714226412L91.7650931040446,18.112311366170513L91.83990160385768,16.943459262519283L92.0144547700882,17.054376456997957L92.08926326990128,13.876138125947087L92.13913560310999,12.856197271400427L92.21394410292307,17.895527429933587L92.31368876934052,19.983022185666147L92.53811426877976,18.07287157126204L92.68773126840593,15.00813349066135L92.81241210142771,21.49968084822925L92.91215676784515,23.68812682875931L93.21139076709747,18.376284265230485L93.23632693370183,6.338896460265725L93.33607160011927,19.697035481236934L93.46075243314108,16.262978226319788L93.48568859974543,16.82380979673389L93.80985876560212,13.98940705795206L93.83479493220646,15.410762521088216L93.85973109881083,4.8500152876650455L93.98441193183262,10.092867124909697L94.10909276485444,12.676636328305392L94.1839012646675,10.396318371952342L94.43326293071111,17.919218294030614L94.60781609694162,13.48935440901716L95.28109259525935,9.946307613331422L95.82968826055526,3.468774298235913L96.07904992659887,4.47886484232398L96.50296475887299,14.450540378480214L96.52790092547734,11.589034828534515L97.00168809096019,7.1925579057798545L97.9243262553215,9.513086718525404L97.99913475513459,11.587704747474561L98.32330492099126,8.875110446633434L98.77215591986975,15.316037617774311L98.84696441968282,19.326366949323397L99.02151758591334,8.758660886006787L99.09632608572642,10.221692222355129L99.29581541856129,4.651370572840104L99.61998558441799,4.165563284822781L99.86934725046157,12.233353081132684L100.44287908236186,18.10541036588839L100.81692158142725,13.797027217684915L101.14109174728394,6.388726308671589L102.0387937450409,14.380527995729679L102.06372991164525,21.3852938770724L102.5375170771281,18.25156507018754L102.56245324373245,17.5194421910947L102.58738941033681,10.535784117877483L102.83675107638041,15.33242267431009L102.93649574279785,24.623193090450616L102.96143190940222,19.63500358484618L102.98636807600657,22.400550533103516L103.11104890902838,19.921279437331915L103.1609212422371,14.81837525943993L103.58483607451122,20.411635988105047L104.28304873943328,14.439610581944006L104.40772957245508,15.155753211780189L104.75683590491613,10.135526101514024L104.93138907114665,14.832890491876917L105.05606990416845,21.51007090172664L105.38024007002512,22.739759756468363L105.4550485698382,25.26714508884386L105.50492090304694,27.85588763881158L105.67947406927745,24.481221394702352L105.97870806852977,32.85737795501565L106.57717606703442,25.301457324883508L106.65198456684747,26.715545533532616L107.59955889781315,30.061509013898572L108.4473885623614,37.4658582328062L108.84636722803117,44.5395570108218L109.29521822690964,40.56182430351038L109.41989905993142,38.53622650840885L109.54457989295324,33.36620142833147L109.56951605955759,42.36872978520198L109.76900539239249,46.84265983402812L110.04330322504045,39.880495099678434L110.39240955750148,38.60276911448121L110.59189889033635,42.991265550876115L110.79138822317124,35.20961667129221L110.91606905619302,40.02011505790038L111.46466472148896,41.697308721439924L111.63921788771947,34.64059257261023L112.01326038678488,36.55251662842763L112.03819655338923,37.797029140199975L112.06313271999359,47.47259778994901L112.21274971961975,44.68538401399025L112.26262205282846,39.03865017140716L112.43717521905899,40.07297132263109L113.08551555077236,32.15326388433044L113.53436654965083,35.62199962949214L113.68398354927699,37.10816281036158L114.08296221494675,43.12876509001695L114.15777071475983,41.67091914214877L114.33232388099034,35.203139754826296L114.63155788024267,47.33727649950056L114.93079187949499,43.08512301002048L115.25496204535166,39.84444797529971L115.27989821195602,46.824906143358184L115.32977054516475,41.335738715038L115.67887687762578,52.65686823094397L116.27734487613043,44.757034902394345L116.35215337594349,38.72748830952416L116.40202570915223,48.43598128464156L116.45189804236094,40.405568693770334L116.52670654217403,44.645847836396264L116.62645120859146,32.6778555649948L116.70125970840455,41.30310353772614L117.17504687388738,42.700691030616866L117.424408539931,42.47290019169533L117.7236425391833,46.163219730832076L117.84832337220509,40.359748365081444L118.54653603712718,48.01741055803224L118.57147220373153,53.527965304265884L118.62134453694024,44.500155768987526L118.74602536996206,47.70198858144993L118.7709615365664,44.87944091298518L118.94551470279694,50.36033870688906L118.99538703600565,55.55099931993297L119.4691742014885,59.50821215350047L119.49411036809285,40.66343093056929L119.5938550345103,50.796990825299034L119.66866353432337,47.107982090685155L120.24219536622365,50.76092442438322L120.49155703226725,55.49825871442486L121.11496119737625,49.91400976685441L121.16483353058497,53.69411941580724L121.41419519662857,52.77127447863791L121.6386206960678,54.08054651680077L122.46151419401168,58.27515954303463L122.68593969345092,51.93131865100252L122.78568435986837,50.98938994210329L122.93530135949453,56.47826822236696L123.23453535874684,56.10332029921702L123.30934385855993,62.620418706712165L123.73325869083403,59.92736117622283L123.83300335725148,58.30494179285556L124.05742885669073,64.93278390599548L124.28185435612997,65.8574601141894L124.43147135575613,63.47732824872781L125.20449252049129,77.90773428420611L125.2543648537,79.81731624076575L125.47879035313925,81.79737321696635L125.7530881857872,86.80303690345276L125.90270518541337,83.16454233431183L126.07725835164388,84.96766961473165L126.9998965160052,96.72308987325273L127.62330068111419,101.20318841395117L127.77291768074035,102.1103904412631L127.92253468036651,107.16923809361096L127.9973431801796,105.05289600010688L128.54593884547552,113.02859214041713L128.79530051151912,118.77525555133137L129.41870467662812,120.51512687525455L129.69300250927608,119.74655206450385L130.06704500834147,124.00672459341794L130.41615134080251,121.16420643251662L130.56576834042866,121.51404666609265L131.03955550591152,125.84232320058426L131.11436400572458,125.26982932522411L131.18917250553767,121.4929484962357L131.31385333855948,123.46762731858513L131.9123213370641,125.09556942983181L132.83495950142543,130.39441960735462L132.95964033444724,128.96190302923705L133.08432116746903,126.35707420905861L133.23393816709518,126.81404379757296L134.2812571644783,128.6424040650579L134.35606566429138,128.3376420134924L134.75504432996112,131.31851751943552L134.95453366279602,132.43960236415066L135.05427832921345,131.72845235742363L135.42832082827886,135.58752352147607L135.47819316148758,132.1794654959738L135.75249099413554,132.16523941159332L135.9519803269704,129.83015681333657L136.22627815961837,132.69658751851156L136.5255121588707,133.879135601773L137.09904399077098,133.61472898062826L137.24866099039713,133.87030694778076L137.99674598852795,132.69517069303464L138.24610765457155,129.64385872052475L138.34585232098897,133.39432105541636L138.96925648609798,126.34591309407719L139.0690011525154,125.59541003685861L139.21861815214157,124.97472481874617L139.41810748497645,124.14107241874277L140.0165754834811,127.4241654733541L140.09138398329418,127.50262097935484L140.16619248310724,122.96759394618732L141.08883064746857,126.09568436597017L141.21351148049035,121.92624649719012L141.3132561469078,124.26619642106483L141.33819231351217,123.8296503236089L141.41300081332525,121.97259693064926L141.53768164634704,123.07025114451827L141.811979478995,120.69418662838497L142.0114688118299,123.39721012855547L142.11121347824732,122.09812574025044L142.16108581145605,118.91155994517196L142.31070281108222,123.14051412225112L142.5101921439171,123.20080149203423L142.53512831052143,122.64476977935826L142.6847453101476,122.50677868852135L142.7595538099607,124.39801902002947L143.1086601424217,123.36188587431805L143.28321330865225,120.09125510094246L143.83180897394817,124.06053504673515L144.00636214017868,123.77108820389631L144.15597913980486,123.69282546326659L144.25572380622228,122.33049475673344L144.28065997282664,122.65889948105323L144.95393647114435,122.55150025459547L145.02874497095743,123.38869953742542L145.10355347077052,124.59624928930674L145.20329813718797,122.88657466075217L145.60227680285772,120.07543870225116L145.65214913606644,123.19480648899584L145.70202146927517,120.88200756762775L145.7269576358795,118.21116624614722L145.75189380248386,121.91613595348066L145.95138313531876,124.67233378124406L146.89895746628443,121.1014131129104L147.22312763214111,125.95062842428577L147.59717013120652,116.35962594279846L148.07095729668936,124.82471480702682L148.17070196310678,120.25475868863246L148.34525512933732,116.92395620469635L148.44499979575474,124.77830654395635L148.56968062877655,126.00152812050072L149.3427017935117,126.46811670102844L149.5920634595553,119.11334673554437L149.61699962615967,117.01125964122642L150.4149569574992,111.508675743084L151.01342495600383,121.98526161552456L151.36253128846488,118.15029094198252L151.48721212148666,116.15802227952851L151.81138228734332,116.2355910648226L151.83631845394768,118.6158385895068L152.03580778678258,114.11502740969341L152.0856801199913,113.36240393339372L152.21036095301312,116.48163678437871L153.13299911737442,116.11163329299515L153.23274378379185,116.08219802084204L153.3324884502093,115.98437923332345L153.60678628285726,114.48273699316195L153.63172244946162,114.4048886980799L153.68159478267032,113.28443034082052L153.7065309492747,112.77892243188607L154.5044882806142,112.00813081936879L154.77878611326219,111.9877555196531L154.82865844647088,114.02394577189158L154.9533392794927,111.90551217411203L155.00321161270142,113.00530608359925L155.1278924457232,113.86826845826457L155.27750944534938,110.43451962794103L155.4520626115799,112.31396271874338L155.77623277743655,109.7240443000125L156.150275276502,115.3502679071202L156.27495610952377,112.15198197748437L156.3747007759412,111.6168653075629L156.4495092757543,114.47845760192556L156.97316877444584,119.11858995363582L157.19759427388507,119.90201733622276L157.77112610578536,119.62900374126245L157.79606227238972,119.30487840817908L157.8708707722028,120.37030225201535L157.92074310541153,121.46126750751033L158.02048777182898,116.00087031081327L158.17010477145513,122.70233915741015L158.86831743637723,125.14832931187703L159.06780676921207,122.5464594401436L159.64133860111235,127.57903317242287L159.86576410055162,126.73870145231403L159.89070026715595,127.99175347002206L160.239806599617,130.68080148079443L160.41435976584754,131.85329684995773L160.9380192645391,135.78669352193702L161.1125724307696,134.07398283878905L161.1624447639783,134.87198810255856L161.23725326379142,131.4860306268425L161.28712559700014,133.72807501878165L162.40925309419632,137.91767614536928L162.53393392721813,136.45807121349063L162.5588700938225,135.57140351732542L162.73342326005297,137.86011158645164L162.83316792647045,135.61953703046643L162.88304025967915,135.87287410018095L163.4316359249751,138.18448751451734L163.98023159027102,138.61316396570183L164.90286975463232,137.9109775487267L165.87538025220235,135.40383258030718L166.12474191824597,136.55815499411858L166.473848250707,135.32726135580805L166.97257158279422,134.93336941582217L167.87027358055116,132.87281362068813L168.04482674678167,130.79105363474312L168.29418841282526,129.27088664242766L168.5934224120776,127.17843781666016L168.66823091189067,125.99728728233855L168.71810324509937,127.77826582162939L168.74303941170373,127.00912235303426L169.0921457441648,123.05007824844216L169.31657124360402,122.16410932674687L169.51606057643892,123.47499095575768L170.5883157404264,119.59609869243118L171.4361454049746,111.77912555860988L171.7603155708313,113.01833702267946L171.78525173743563,106.32486793897947L171.83512407064438,109.71086878690403L173.48091106653214,98.54908876494281L173.60559189955396,102.17264401783052L173.68040039936702,91.90767596968382L173.8798897322019,93.41058082302543L174.30380456447602,89.38455075200764L174.52823006391526,87.18048113815728L174.70278323014577,86.47983684415023L174.85240022977194,87.508779841523L175.0020172293981,84.25362812743946L175.02695339600245,84.90146434805855L175.89971922715503,75.9703651994155L176.09920855998993,79.27909604837104L176.67274039189022,73.96843899187391L176.72261272509894,74.03482738564946L176.7475488917033,73.59870537200977L177.44576155662537,67.5782573046512L177.54550622304282,71.01926375119324L177.59537855625155,69.17759303484011L178.0941018883387,63.946846862894844L178.21878272136053,65.36975408726762L178.26865505456925,66.55210940515806L178.31852738777795,67.94862705023968L178.96686771949132,55.476640078066175L179.88950588385262,57.39027974568557L180.0391228834788,55.13799951254582L180.28848454952242,53.42983809215366L180.38822921593984,50.6049965157739L180.48797388235727,55.92591832827727L180.6625270485878,52.19937817592789L180.83708021481831,51.26292400356532L181.0365695476532,48.31619688309645L181.73478221257525,47.7499871588312L181.784654545784,43.92750768133057L181.95920771201452,42.713162950121166L182.1586970448494,44.20616930166142L182.18363321145375,42.34798823128138L182.25844171126684,43.85869044388029L182.60754804372786,40.76087382561444L182.95665437618894,38.02424168300849L183.05639904260636,38.24297254949259L183.10627137581508,37.73854412663578L183.43044154167174,40.43885927334362L183.7047393743197,39.482376778933194L183.72967554092406,36.993949328038646L183.85435637394588,31.707262645426514L183.9042287071546,32.22528102693946L183.97903720696766,31.202063161085658L184.901675371329,36.12652443503446L185.35052637020746,39.11500453486389L185.8243135356903,42.70861368736536L185.97393053531647,46.758093665766395L186.22329220136007,46.634685275246326L186.57239853382112,47.018018492035175L187.02124953269958,60.32113263785182L187.09605803251264,59.875748248135125L187.120994199117,60.328746870006675L187.9438876970609,78.49586143115512L188.01869619687398,74.04413795306921L188.2431216963132,72.27750115738142L188.39273869593939,76.41363880831965L188.51741952896117,79.8478695520707L188.54235569556553,77.20185641037615L188.84158969481786,82.07052174768634L188.96627052783964,80.29379368482623L189.3652491935094,85.21700198386347L189.48993002653123,86.18728647883816L189.61461085955304,85.63213184860028L189.71435552597046,82.77693936455513L190.1133341916402,88.83530438039121L190.46244052410125,86.26326494982142L190.96116385618845,89.19336605704073L191.26039785544077,92.22590268241434L191.5596318546931,95.19917359447115L192.4323976858457,98.91917900074333L192.60695085207624,96.04851709567467L192.73163168509802,98.00014117965144L192.78150401830672,96.57300275538499L192.83137635151544,98.64382330652525L192.98099335114162,100.27720140123441L193.08073801755904,93.08327486132038L193.4797166832288,99.30872890074721L193.75401451587675,98.65274834320297L193.80388684908547,101.40714381474744L194.1280570149422,103.52533645581322L194.3524825143814,100.49545035429098L194.77639734665553,98.57471692101846L195.25018451213836,101.04399313230324L195.49954617818196,103.79658624762878L195.64916317780813,104.60982479484227L195.77384401082992,106.52683785645432L195.82371634403864,104.7721525137691L195.97333334366482,103.04993849783037L196.19775884310403,107.11306626449887L196.5967375087738,108.3278736325987L197.56924800634386,102.87397262890465L197.61912033955255,105.56137249575487L197.69392883936564,104.16800656448925L197.9682266720136,104.73039953440853L198.14277983824414,104.69279101052463L198.69137550354006,108.31209578698159L199.0903541692098,104.81449342751128L199.48933283487955,109.97312607416201L199.61401366790136,105.00377938357373L199.6638860011101,107.74937511593163L199.73869450092315,110.38331150713243L200.0129923335711,108.87112500117675L200.16260933319728,107.94600543262952L200.41197099924085,109.97259596939175L200.4369071658452,110.09566702051254L200.81094966491065,108.66793102359598L201.03537516434986,110.62882712191828L201.06031133095425,107.51839401011986L201.8832048288981,110.01065749189749L202.45673666079838,113.6197842567652L202.63128982702892,112.00042020452841L202.70609832684198,110.64163638082182L202.85571532646813,115.66034064465701L203.80328965743385,112.81245396817312L204.1274598232905,115.02339566749995L204.15239598989487,109.52080213108898L204.2022683231036,113.61425189061723L204.35188532272974,115.02112103612204L204.42669382254283,115.61660218197503L204.8755448214213,114.76436720020637L205.3243958202998,112.4233185137169L205.92286381880444,112.14231479412827L206.02260848522187,112.53862112038601L206.3218424844742,109.55812150691636L206.54626798391342,109.80222029622527L207.02005514939626,113.16513749097149L207.2444806488355,111.81229084069201L207.39409764846167,112.27331814026608L208.04243798017504,112.85293469608504L208.14218264659246,108.67128514105154L208.19205497980118,111.88366221930814L208.51622514565784,113.96111389921114L208.64090597867965,109.12448616656266L208.76558681170147,112.55732899964245L208.8653314781189,111.08465939474367L209.1146931441625,112.60149154614066L209.3141824769974,111.55214433424656L210.1121398083369,113.97581225875058L210.28669297456742,114.05533761256042L210.56099080721538,112.50984125049436L210.58592697381974,112.72596978446984L210.6607354736328,114.03397920945261L210.7355439734459,112.25459098447256L211.18439497232436,113.02510308720188L211.2841396387418,113.75426701784973L211.38388430515926,109.3174153881372L211.43375663836798,112.54273666105708L211.7329906376203,112.83841946364804L212.33145863612492,113.29432884262185L212.63069263537724,113.28699412025493L212.83018196821214,112.35854934905781L212.9797989678383,114.54712062707902L213.25409680048625,111.54620716081949L213.45358613332115,110.6535878338244L213.50345846652985,114.00758963016145L213.653075466156,109.62605202366L213.80269246578217,111.59726106933125L214.1019264650345,109.59141208648964L214.50090513070424,112.77609841920079L214.67545829693478,113.23447519492349L214.72533063014347,110.08583598659108L214.7752029633522,110.64465315887813L214.8500114631653,112.89580571459747L215.62303262790044,113.74167943912283L215.6479687945048,111.33321106412289L215.7726496275266,115.72773141836181L216.12175595998764,111.76088995451242L216.17162829319636,110.93149766920834L216.19656445980073,112.17363916691725L216.79503245830537,110.11144486612964L217.69273445606234,114.70754960710143L217.84235145568846,113.5969030072264L217.86728762229282,111.32256077737465L217.91715995550155,113.37236026480637L218.56550028721492,114.6485441270355L218.59043645381928,116.3540743001134L218.66524495363237,115.60290620236484L218.6901811202367,119.30840601446855L219.5130746181806,114.34320377935695L219.53801078478497,114.03708273192584L219.887117117246,115.61175413289415L220.18635111649832,110.60287126471188L220.61026594877242,117.636079676547L220.71001061518987,114.05840258195947L220.90949994802475,113.94291684818786L221.03418078104656,114.89521633404739L221.05911694765092,115.1182073152308L221.20873394727707,114.87368444210566L221.70745727936426,112.09805586494454L222.03162744522095,112.71528094464739L222.18124444484712,113.48247748299535L222.5552869439125,114.72897547808908L222.58022311051687,113.27461858343615L222.80464860995613,114.39474923956483L222.85452094316483,112.92167482738692L222.8794571097692,109.79271696343453L223.0540102759997,109.60979226461536L224.30081860621772,112.64624202702045L225.2982652703921,113.78541790180483L225.37307377020517,111.71312269557633L225.39800993680953,110.53225167104267L225.44788227001825,112.86394159876966L225.7969886024793,109.76458285753573L225.99647793531418,108.03421486640333L226.27077576796214,113.00999992038332L226.57000976721446,113.43969320889987L226.59494593381882,113.78730700244071L226.76949910004933,113.52680388005892L227.04379693269732,112.29485967047637L227.69213726441066,114.7272984193613L227.8916265972455,115.92284852689731L228.19086059649783,116.16618589299073L228.24073292970658,117.2465297765431L228.36541376272837,114.31604313858178L228.7145200951894,116.62421569104563L228.73945626179378,116.56917153935397L228.78932859500247,114.85370431140056L229.26311576048533,117.90844750751441L229.43766892671587,116.66516869411653L229.63715825955072,116.05497955045556L229.66209442615508,119.45825217562253L230.0361369252205,114.3386448783326L230.06107309182485,115.36378075962794L230.36030709107717,116.30518900202547L230.38524325768154,119.01866038530467L231.00864742279055,117.96790598620221L231.55724308808647,115.69597332348806L231.7068600877126,117.92596987973916L231.78166858752567,118.02513802485481L231.80660475413003,117.0928379462375L231.90634942054749,117.7098509840322L232.03103025356927,115.84435446782238L232.1557110865911,118.48727372531222L233.35264708360037,111.5902733246322L233.42745558341343,114.99511698757291L233.70175341606142,114.17014866753347L233.77656191587448,110.27326175682329L233.92617891550063,112.25225852348335L234.05085974852244,111.98203038813413L234.25034908135734,110.56983128012091L234.54958308060966,112.62787148716328L234.89868941307068,112.53916086342485L235.02337024609247,110.22127293626214L235.5220935781797,110.17808385488752L236.02081691026686,109.17597379715922L236.04575307687125,108.37265302828415L236.14549774328867,105.52461213950342L236.89358274141946,105.36832761495774L237.21775290727615,106.67340700630115L237.6416677395503,105.03842895901262L237.86609323898952,100.6142998437867L238.09051873842876,99.66676166259109L238.314944237868,102.19787700489562L238.46456123749417,102.64211444065482L238.48949740409853,101.94492064678883L238.68898673693337,101.49596045943993L239.63656106789907,95.90862726593332L239.76124190092088,96.07853066394081L240.0604759001732,95.35812791940532L240.1103482333819,93.21252404258203L240.13528439998626,92.0898392452875L240.28490139961244,99.59789623379807L241.08285873095193,88.51591143716608L241.1826033973694,90.20048801441528L241.95562456210453,87.51421582498546L242.1052415617307,90.07082438760595L242.4294117275874,86.74875417497657L242.55409256060918,86.16006800845166L242.70370956023535,88.03822920953681L243.20243289232252,87.55192073155484L243.40192222515742,84.53148977148064L243.45179455836615,84.90096315809393L244.00039022366207,86.38372403016506L244.05026255687076,81.77517628449465L244.2996242229144,81.15596572147041L244.57392205556235,81.2564350328404L244.67366672197977,81.54163139924849L244.7235390551885,78.56563285719187L244.89809222141903,76.93787387304764L245.0975815542539,78.24018708131707L245.172390054067,79.0591025687068L245.4217517201106,77.1604889617576L246.21970905145008,82.26923393039117L246.3443898844719,81.78023637548364L246.5189430507024,79.9788439834029L246.79324088335036,84.89495851678699L246.94285788297654,81.05060980794536L247.11741104920705,82.79008596285796L247.391708881855,84.88417329427904L247.51638971487682,86.09935655485232L247.61613438129424,86.28618475243441L248.08992154677708,87.27838667009284L248.73826187849045,89.8463201982601L248.8380065449079,87.37465369637482L249.06243204434713,89.93445252588552L249.21204904397328,90.29706346529086L249.23698521057764,86.58792038767506L249.3367298769951,84.91172910406479L249.73570854266484,89.77898725416661L250.1346872083346,88.96025489387934L250.40898504098257,90.6781413272389L250.80796370665232,90.44225434273498L251.03238920609155,92.90258624080492L251.2069423723221,89.27859726583245L251.33162320534387,90.27633154963884L252.5036230357488,96.78056286861911L252.60336770216622,98.76992077397092L253.3763888669014,103.604755788669L253.57587819973628,106.02952247578776L253.60081436634064,103.88465110737431L253.65068669954937,105.7793997686348L253.67562286615373,104.56443818823816L254.249154698054,110.14811847796415L254.32396319786707,111.17373627268702L254.39877169768013,109.82938093700048L254.57332486391067,113.03252455398574L254.64813336372376,112.00953800657715L254.77281419674557,113.9502612088233L254.872558863163,113.61101343238428L255.09698436260226,110.78472611572195L255.1219205292066,111.88742114404283L255.22166519562404,114.51664442192248L255.4211545284589,114.9008547211494L255.77026086091996,112.57352129080722L255.87000552733738,111.93025360948107L255.89494169394175,116.89503176077643L256.8425160249074,114.56623331361459L257.14175002415976,116.67794903821446L257.1916223573685,114.68606590650244L257.366175523599,115.2484395998846L257.61553718964257,117.38750873063067L257.64047335624696,113.32187501413905L257.74021802266435,112.66797632260172L257.79009035587313,112.85127691389435L257.8898350222905,114.53249937368798L257.96464352210364,116.05883485787572L258.1890690215429,113.04351218013326L258.3636221877734,116.36878229792138L258.5381753540039,115.84802664814009L258.6877923536301,115.83859078322921L258.71272852023446,117.81995856395265L258.8623455198606,116.93598476384734L258.9870263528824,119.79067605792787L259.236388018926,117.07105545931346L259.48574968496956,116.80655245548323L259.63536668459574,120.84083288438019L259.7849836842219,119.56452372465989L260.00940918366115,122.35981436966395L260.50813251574834,120.7223303725523L260.5829410155614,122.76423611804118L260.6328133487701,120.89844081550628L260.9320473480225,119.85057789696896L260.9569835146268,117.98482114750826L261.1564728474617,119.61200183553946L261.30608984708783,121.15541633159862L261.35596218029656,120.37593100084881L261.75494084596636,119.22795538687788L261.7798770125707,120.68300623686642L261.8048131791751,116.31912593834942L261.85468551238375,117.2273496221277L262.55289817730585,116.06322990833475L262.6526428437233,119.44683082739026L263.0017491761843,116.14489495776279L263.2261746756236,115.48562775064285L263.4506001750628,116.93009578176301L263.6999618411064,115.90525868679273L263.8246426741282,117.55164844404499L264.3732383394241,113.3018466920912L264.572727672259,114.09809297185025L264.7223446718852,110.98205038775549L265.0465148377419,107.49359474513955L265.8694083356857,111.80831023578065L266.2434508347511,109.60957058443871L266.31825933456423,106.22626845170826L266.34319550116857,108.40429546393528L266.4180040009816,112.09494270420275L266.6424295004209,109.98322697960289L266.7421741668383,107.27740838155276L266.84191883325576,110.18665227562889L267.1411528325081,108.6411559135628L267.16608899911245,108.2995853144031L267.34064216534296,108.30332496260067L267.9391101638476,105.86796581834497L267.9889824970563,108.68908702306423L268.36302499612174,105.01101772325512L268.38796116272607,106.54635535026901L268.4378334959348,103.12287127595171L268.53757816235225,104.05193289633607L268.6123866621653,102.99984841617366L268.83681216160454,106.81500280957594L269.23579082727434,103.35185726017349L269.3105993270874,104.34592900193073L269.4851524933179,103.66172759407075L269.8591949923833,105.08792146801925L270.1334928250313,100.0732749152438L270.45766299088797,102.3905074401451L270.78183315674465,98.13563595893376L271.1309394892057,102.82867276671749L271.20574798901873,100.51230768598576L271.3803011552493,99.83641446561627L271.8540883207321,100.3399272529608L271.8790244873365,100.08688415043704L272.053577653567,100.88321717461305L272.12838615338006,101.03430667241004L272.2031946531931,97.89196125344107L272.4276201526324,100.6699608446656L272.45255631923675,99.42664347819353L272.4774924858411,101.39102862973107L272.9263434847196,101.52204161413746L273.12583281755445,99.55447583397826L273.2255774839719,99.6834936967947L273.2505136505763,102.22225218605975L273.27544981718063,103.03153904316754L273.4250668168068,100.54444167333297L273.52481148322425,99.48763444158081L273.84898164908094,103.13401311439603L273.9736624821027,102.32596959393123L273.99859864870706,105.34386568937667L274.0734071485202,101.90044967569702L274.19808798154196,102.34566057657982L274.272896481355,102.10059796041585" fill="none"></path></g></g></g></g></g></g><g transform="translate(30, 176)" clip-path="url(#clip_1)"><clipPath id="clip_1"><rect width="299" height="23"></rect></clipPath><g><g><line x1="0" y1="0" x2="0" y2="5" style="visibility: inherit;" fill="rgb(0, 0, 0)" stroke="rgb(204, 204, 204)" stroke-width="1px"></line><line x1="24.936166604359943" y1="0" x2="24.936166604359943" y2="5" style="visibility: inherit;" fill="rgb(0, 0, 0)" stroke="rgb(204, 204, 204)" stroke-width="1px"></line><line x1="49.87233320871989" y1="0" x2="49.87233320871989" y2="5" style="visibility: inherit;" fill="rgb(0, 0, 0)" stroke="rgb(204, 204, 204)" stroke-width="1px"></line><line x1="74.80849981307983" y1="0" x2="74.80849981307983" y2="5" style="visibility: inherit;" fill="rgb(0, 0, 0)" stroke="rgb(204, 204, 204)" stroke-width="1px"></line><line x1="99.74466641743977" y1="0" x2="99.74466641743977" y2="5" style="visibility: inherit;" fill="rgb(0, 0, 0)" stroke="rgb(204, 204, 204)" stroke-width="1px"></line><line x1="124.68083302179973" y1="0" x2="124.68083302179973" y2="5" style="visibility: inherit;" fill="rgb(0, 0, 0)" stroke="rgb(204, 204, 204)" stroke-width="1px"></line><line x1="149.61699962615967" y1="0" x2="149.61699962615967" y2="5" style="visibility: inherit;" fill="rgb(0, 0, 0)" stroke="rgb(204, 204, 204)" stroke-width="1px"></line><line x1="174.55316623051962" y1="0" x2="174.55316623051962" y2="5" style="visibility: inherit;" fill="rgb(0, 0, 0)" stroke="rgb(204, 204, 204)" stroke-width="1px"></line><line x1="199.48933283487955" y1="0" x2="199.48933283487955" y2="5" style="visibility: inherit;" fill="rgb(0, 0, 0)" stroke="rgb(204, 204, 204)" stroke-width="1px"></line><line x1="224.4254994392395" y1="0" x2="224.4254994392395" y2="5" style="visibility: inherit;" fill="rgb(0, 0, 0)" stroke="rgb(204, 204, 204)" stroke-width="1px"></line><line x1="249.36166604359946" y1="0" x2="249.36166604359946" y2="5" style="visibility: inherit;" fill="rgb(0, 0, 0)" stroke="rgb(204, 204, 204)" stroke-width="1px"></line><line x1="274.29783264795935" y1="0" x2="274.29783264795935" y2="5" style="visibility: inherit;" fill="rgb(0, 0, 0)" stroke="rgb(204, 204, 204)" stroke-width="1px"></line><line x1="299.23399925231934" y1="0" x2="299.23399925231934" y2="5" style="visibility: inherit;" fill="rgb(0, 0, 0)" stroke="rgb(204, 204, 204)" stroke-width="1px"></line></g><g transform="translate(0, 8)"><text style="text-anchor: middle; visibility: hidden; font-family: Roboto, sans-serif; font-size: 12px; font-weight: 200;" x="0" y="0" dx="0em" dy="0.95em" fill="rgb(255, 255, 255)" stroke="none" stroke-width="1px">-1k</text><text style="text-anchor: middle; visibility: inherit; font-family: Roboto, sans-serif; font-size: 12px; font-weight: 200;" x="24.936166604359943" y="0" dx="0em" dy="0.95em" fill="rgb(255, 255, 255)" stroke="none" stroke-width="1px">0</text><text style="text-anchor: middle; visibility: inherit; font-family: Roboto, sans-serif; font-size: 12px; font-weight: 200;" x="49.87233320871989" y="0" dx="0em" dy="0.95em" fill="rgb(255, 255, 255)" stroke="none" stroke-width="1px">1k</text><text style="text-anchor: middle; visibility: inherit; font-family: Roboto, sans-serif; font-size: 12px; font-weight: 200;" x="74.80849981307983" y="0" dx="0em" dy="0.95em" fill="rgb(255, 255, 255)" stroke="none" stroke-width="1px">2k</text><text style="text-anchor: middle; visibility: inherit; font-family: Roboto, sans-serif; font-size: 12px; font-weight: 200;" x="99.74466641743977" y="0" dx="0em" dy="0.95em" fill="rgb(255, 255, 255)" stroke="none" stroke-width="1px">3k</text><text style="text-anchor: middle; visibility: inherit; font-family: Roboto, sans-serif; font-size: 12px; font-weight: 200;" x="124.68083302179973" y="0" dx="0em" dy="0.95em" fill="rgb(255, 255, 255)" stroke="none" stroke-width="1px">4k</text><text style="text-anchor: middle; visibility: inherit; font-family: Roboto, sans-serif; font-size: 12px; font-weight: 200;" x="149.61699962615967" y="0" dx="0em" dy="0.95em" fill="rgb(255, 255, 255)" stroke="none" stroke-width="1px">5k</text><text style="text-anchor: middle; visibility: inherit; font-family: Roboto, sans-serif; font-size: 12px; font-weight: 200;" x="174.55316623051962" y="0" dx="0em" dy="0.95em" fill="rgb(255, 255, 255)" stroke="none" stroke-width="1px">6k</text><text style="text-anchor: middle; visibility: inherit; font-family: Roboto, sans-serif; font-size: 12px; font-weight: 200;" x="199.48933283487955" y="0" dx="0em" dy="0.95em" fill="rgb(255, 255, 255)" stroke="none" stroke-width="1px">7k</text><text style="text-anchor: middle; visibility: inherit; font-family: Roboto, sans-serif; font-size: 12px; font-weight: 200;" x="224.4254994392395" y="0" dx="0em" dy="0.95em" fill="rgb(255, 255, 255)" stroke="none" stroke-width="1px">8k</text><text style="text-anchor: middle; visibility: inherit; font-family: Roboto, sans-serif; font-size: 12px; font-weight: 200;" x="249.36166604359946" y="0" dx="0em" dy="0.95em" fill="rgb(255, 255, 255)" stroke="none" stroke-width="1px">9k</text><text style="text-anchor: middle; visibility: inherit; font-family: Roboto, sans-serif; font-size: 12px; font-weight: 200;" x="274.29783264795935" y="0" dx="0em" dy="0.95em" fill="rgb(255, 255, 255)" stroke="none" stroke-width="1px">10k</text><text style="text-anchor: middle; visibility: hidden; font-family: Roboto, sans-serif; font-size: 12px; font-weight: 200;" x="299.23399925231934" y="0" dx="0em" dy="0.95em" fill="rgb(255, 255, 255)" stroke="none" stroke-width="1px">11k</text></g><line x1="0" y1="0" x2="299.23399925231934" y2="0" fill="rgb(0, 0, 0)" stroke="rgb(204, 204, 204)" stroke-width="1px"></line></g></g></g></g></svg>